<svg width="32" height="24" viewBox="0 0 32 24" fill="none" xmlns="http://www.w3.org/2000/svg">
<path d="M26.6406 5.99018C26.2942 5.99792 25.9654 6.1065 25.7239 6.29292L11.9999 16.5859L7.60932 13.2929C7.48646 13.1969 7.33931 13.1203 7.17647 13.0675C7.01363 13.0147 6.83839 12.9869 6.661 12.9855C6.48361 12.9842 6.30765 13.0094 6.14341 13.0597C5.97917 13.1099 5.82997 13.1843 5.70453 13.2784C5.57909 13.3725 5.47994 13.4844 5.41289 13.6075C5.34584 13.7307 5.31223 13.8627 5.31403 13.9957C5.31584 14.1288 5.35302 14.2602 5.4234 14.3823C5.49378 14.5045 5.59594 14.6148 5.72391 14.707L11.0572 18.707C11.3073 18.8944 11.6464 18.9998 11.9999 18.9998C12.3535 18.9998 12.6926 18.8944 12.9427 18.707L27.6093 7.70698C27.802 7.56652 27.9336 7.38567 27.9869 7.18815C28.0401 6.99063 28.0126 6.78565 27.9079 6.60007C27.8032 6.41448 27.6262 6.25695 27.4 6.14812C27.1739 6.03929 26.9092 5.98424 26.6406 5.99018Z" fill="black"/>
</svg>
