<svg width="24" height="24" viewBox="0 0 24 24" fill="none" xmlns="http://www.w3.org/2000/svg">
<path d="M23.2222 3.3252H0.777814C0.348263 3.3252 0 3.67351 0 4.10311V19.8975C0 20.3271 0.348263 20.6754 0.777814 20.6754H23.2221C23.6517 20.6754 24 20.3272 24 19.8975V4.10311C24 3.67351 23.6518 3.3252 23.2222 3.3252ZM21.2377 16.6716C21.5671 16.9575 21.6023 17.4562 21.3165 17.7856C21.0306 18.1149 20.532 18.1504 20.2024 17.8644C19.9984 17.6873 14.8491 13.2181 14.6506 13.0459L12.5176 14.8972C12.3692 15.0261 12.1846 15.0905 12 15.0905C11.8154 15.0905 11.6308 15.0261 11.4824 14.8972L9.34936 13.0459C9.15088 13.2182 4.00163 17.6873 3.79757 17.8644C3.46816 18.1503 2.96937 18.115 2.6835 17.7856C2.39762 17.4562 2.43289 16.9575 2.76231 16.6716L8.14457 12.0002L2.76231 7.32899C2.43295 7.04311 2.39767 6.54438 2.6835 6.21496C2.96942 5.8856 3.46816 5.85022 3.79757 6.1362C4.06449 6.36785 11.5154 12.8346 12 13.2552C12.4197 12.8909 19.9132 6.38728 20.2024 6.1362C20.5318 5.85027 21.0306 5.8855 21.3165 6.21496C21.6024 6.54438 21.5671 7.04316 21.2377 7.32899L15.8554 12.0002L21.2377 16.6716Z" fill="black"/>
</svg>
