<svg width="32" height="32" viewBox="0 0 32 32" fill="none" xmlns="http://www.w3.org/2000/svg">
<path d="M25.436 6.57056C22.66 3.79322 18.8733 2.39189 14.8973 2.71189C9.55198 3.14122 4.86665 6.85856 3.29865 11.9866C2.17865 15.6506 2.64931 19.4759 4.47331 22.6359L2.74531 28.3732C2.57998 28.9239 3.08265 29.4426 3.63865 29.2946L9.64398 27.6852C11.5893 28.7466 13.7786 29.3052 16.008 29.3066H16.0133C21.6066 29.3066 26.7746 25.8852 28.5626 20.5852C30.304 15.4172 29.016 10.1546 25.436 6.57056ZM22.5306 20.7386C22.2533 21.5159 20.8946 22.2652 20.284 22.3199C19.6733 22.3759 19.1013 22.5959 16.2906 21.4879C12.908 20.1546 10.772 16.6866 10.6066 16.4652C10.44 16.2426 9.24798 14.6612 9.24798 13.0239C9.24798 11.3866 10.108 10.5812 10.4133 10.2492C10.7186 9.91589 11.0786 9.83322 11.3013 9.83322C11.5226 9.83322 11.7453 9.83322 11.9386 9.84122C12.176 9.85056 12.4386 9.86256 12.688 10.4159C12.984 11.0746 13.6306 12.7199 13.7133 12.8866C13.796 13.0532 13.852 13.2479 13.7413 13.4692C13.6306 13.6906 13.5746 13.8292 13.4093 14.0239C13.2426 14.2186 13.06 14.4572 12.9106 14.6066C12.744 14.7719 12.5706 14.9532 12.764 15.2852C12.9586 15.6186 13.6253 16.7079 14.6146 17.5892C15.8866 18.7226 16.9573 19.0732 17.2906 19.2412C17.624 19.4079 17.8173 19.3799 18.012 19.1572C18.2066 18.9359 18.844 18.1866 19.0653 17.8532C19.2866 17.5199 19.5093 17.5759 19.8146 17.6866C20.12 17.7972 21.756 18.6026 22.088 18.7692C22.4213 18.9359 22.6426 19.0186 22.7253 19.1572C22.808 19.2946 22.808 19.9612 22.5306 20.7386Z" fill="black"/>
</svg>
