<svg width="548" height="460" viewBox="0 0 548 460" fill="none" xmlns="http://www.w3.org/2000/svg">
<path d="M25.6637 404.92C30.3143 427.941 46.2436 442.199 46.2436 442.199C46.2436 442.199 54.6329 419.132 49.9823 396.111C45.3317 373.089 29.4023 358.832 29.4023 358.832C29.4023 358.832 21.0131 381.899 25.6637 404.92Z" fill="#3F3D56"/>
<path d="M47.4222 442.968L46.7872 442.921C46.5938 442.908 27.3005 441.315 14.5375 424.678C1.77501 408.041 0.0674833 382.257 0.051763 381.998L0 381.15L0.635007 381.196C0.828435 381.21 20.1217 382.803 32.8845 399.44C45.6472 416.077 47.3547 441.861 47.3705 442.12L47.4222 442.968ZM1.22887 382.751C1.64742 387.354 4.16714 409.086 15.3118 423.613C26.4564 438.141 42.7458 440.93 46.1934 441.367C45.7748 436.763 43.2551 415.033 32.1102 400.505C20.9575 385.965 4.67482 383.186 1.22887 382.751Z" fill="#3F3D56"/>
<path d="M424.718 431.347C431.476 431.347 436.955 424.01 436.955 414.96C436.955 405.911 431.476 398.574 424.718 398.574C417.96 398.574 412.482 405.911 412.482 414.96C412.482 424.01 417.96 431.347 424.718 431.347Z" fill="#3F3D56"/>
<path d="M263.51 253.166H96.5868V443.045H263.51V253.166Z" fill="#D0CDE1"/>
<path d="M237.491 417.817H68.759V225.514H237.491V417.817ZM70.5707 415.391H235.68V227.94H70.5707V415.391Z" fill="#3F3D56"/>
<path d="M176.65 175.481L173.229 180.895C172.92 181.351 172.544 181.716 172.123 181.965C171.703 182.215 171.249 182.343 170.789 182.343C170.329 182.343 169.875 182.215 169.454 181.965C169.034 181.716 168.657 181.351 168.349 180.895L164.927 175.481V137.864H176.65V175.481Z" fill="#6C63FF"/>
<path d="M189.443 107.338H183.145C184.858 104.003 185.773 100.048 185.769 96.0004C185.769 84.9218 179.062 65.4751 170.789 65.4751C162.516 65.4751 155.809 84.9218 155.809 96.0004C155.805 100.048 156.72 104.003 158.433 107.338H152.135C150.865 107.343 149.648 108.021 148.75 109.224C147.852 110.426 147.346 112.056 147.342 113.756V118.363C147.346 120.064 147.852 121.694 148.75 122.896C149.648 124.099 150.865 124.776 152.135 124.781H189.443C190.713 124.776 191.929 124.099 192.827 122.896C193.725 121.694 194.232 120.064 194.235 118.363V113.756C194.232 112.056 193.725 110.426 192.827 109.224C191.929 108.021 190.713 107.343 189.443 107.338Z" fill="#3F3D56"/>
<path d="M170.789 187.621C170.003 187.626 169.228 187.383 168.526 186.913C167.824 186.443 167.214 185.758 166.745 184.914L161.517 175.58V111.057H180.06V175.58L174.832 184.914C174.364 185.758 173.754 186.443 173.051 186.913C172.349 187.383 171.574 187.626 170.789 187.621ZM162.476 175.152L167.512 184.144C167.893 184.825 168.388 185.378 168.957 185.759C169.526 186.14 170.153 186.338 170.789 186.338C171.425 186.338 172.052 186.14 172.621 185.759C173.189 185.378 173.684 184.825 174.066 184.144L179.102 175.152V112.341H162.476V175.152Z" fill="#3F3D56"/>
<path d="M176.54 208.599C176.54 210.641 175.934 212.6 174.856 214.045C173.777 215.489 172.314 216.3 170.789 216.3C169.263 216.3 167.8 215.489 166.722 214.045C165.643 212.6 165.037 210.641 165.037 208.599C165.037 204.345 170.789 195.762 170.789 195.762C170.789 195.762 176.54 204.345 176.54 208.599Z" fill="#6C63FF"/>
<path opacity="0.2" d="M237.408 253.525C237.342 277.127 230.293 299.731 217.807 316.389C205.32 333.046 188.414 342.399 170.789 342.399C153.164 342.399 136.257 333.046 123.77 316.389C111.284 299.731 104.236 277.127 104.169 253.525H237.408Z" fill="#6C63FF"/>
<path d="M225.901 253.166C225.847 272.691 220.016 291.393 209.686 305.174C199.357 318.955 185.37 326.693 170.789 326.693C156.207 326.693 142.22 318.955 131.891 305.174C121.561 291.393 115.731 272.691 115.676 253.166H225.901Z" fill="#6C63FF"/>
<path d="M127.654 51.3551C136.124 51.3551 142.991 42.16 142.991 30.8172C142.991 19.4744 136.124 10.2793 127.654 10.2793C119.183 10.2793 112.317 19.4744 112.317 30.8172C112.317 42.16 119.183 51.3551 127.654 51.3551Z" fill="#3F3D56"/>
<path d="M170.789 51.3551C179.259 51.3551 186.126 42.16 186.126 30.8172C186.126 19.4744 179.259 10.2793 170.789 10.2793C162.318 10.2793 155.452 19.4744 155.452 30.8172C155.452 42.16 162.318 51.3551 170.789 51.3551Z" fill="#6C63FF"/>
<path d="M213.924 51.3551C222.394 51.3551 229.261 42.16 229.261 30.8172C229.261 19.4744 222.394 10.2793 213.924 10.2793C205.454 10.2793 198.587 19.4744 198.587 30.8172C198.587 42.16 205.454 51.3551 213.924 51.3551Z" fill="#D0CDE1"/>
<path d="M329.814 442.215H16.8955V443.701H329.814V442.215Z" fill="#3F3D56"/>
<path d="M436.317 443.5V170.731H529.761V443.5H436.317ZM437.662 172.532V441.7H528.417V172.532H437.662Z" fill="#3F3D56"/>
<path d="M512.954 408.392V206.741H452.451V408.392H512.954Z" fill="#D0CDE1"/>
<path d="M500.854 275.158V226.546H464.552V275.158H500.854Z" fill="#6C63FF"/>
<path d="M493.621 358.662L508.758 346.959L500.019 326.689L484.882 338.392L493.621 358.662Z" fill="#FF6584"/>
<path d="M480.014 386.786V307.566H462.535V386.786H480.014Z" fill="#3F3D56"/>
<path d="M378.232 267.264L352.001 341.811L370.363 355.471L403.007 280.924L378.232 267.264Z" fill="#FFB8B8"/>
<path opacity="0.1" d="M378.232 267.264L352.001 341.811L370.363 355.471L403.007 280.924L378.232 267.264Z" fill="black"/>
<path d="M353.167 331.663L321.689 418.309L303.91 442.117C303.91 442.117 279.428 442.508 289.046 454.997C298.664 467.487 328.393 452.655 328.393 452.655L327.519 457.339L346.755 454.997L346.172 445.63L344.423 444.459C344.423 444.459 345.589 426.505 342.674 422.993C339.76 419.48 347.921 415.187 347.921 415.187L381.439 337.127L353.167 331.663Z" fill="#2F2E41"/>
<path d="M362.202 261.8C362.202 261.8 334.222 283.657 341.509 303.562C348.795 323.467 351.127 325.028 351.127 325.028L365.991 310.587L363.368 302.391L392.514 279.754C392.514 279.754 370.072 256.726 362.202 261.8Z" fill="#FFB8B8"/>
<path d="M344.715 322.296L384.645 407.771L388.725 431.579C388.725 431.579 374.152 456.168 384.936 457.729C395.72 459.291 407.961 436.263 408.544 425.725C409.127 415.187 410.002 408.552 410.002 408.552L412.916 410.113C412.916 410.113 421.66 391.379 417.288 389.037C414.721 387.653 412.093 386.48 409.419 385.524C409.419 385.524 403.007 380.06 396.886 382.012C396.886 382.012 398.052 375.767 396.886 373.035C395.72 370.303 364.594 301.439 364.594 301.439L344.715 322.296Z" fill="#2F2E41"/>
<path d="M413.499 92.4108C422.352 92.4108 429.529 82.7999 429.529 70.9444C429.529 59.0888 422.352 49.478 413.499 49.478C404.646 49.478 397.469 59.0888 397.469 70.9444C397.469 82.7999 404.646 92.4108 413.499 92.4108Z" fill="#FFB8B8"/>
<path d="M409.127 84.6048C409.127 84.6048 414.957 106.852 413.499 113.097C412.042 119.341 400.384 148.614 400.384 148.614L401.841 162.274L430.987 102.168C430.987 102.168 423.7 89.2884 425.741 80.3115L409.127 84.6048Z" fill="#FFB8B8"/>
<path d="M419.911 250.872L411.459 297.317C411.459 297.317 369.488 263.752 357.83 264.922C357.83 264.922 383.187 226.283 392.805 226.283C402.423 226.283 419.911 250.872 419.911 250.872Z" fill="#2F2E41"/>
<path d="M440.896 105.291C440.896 105.291 434.193 90.8497 426.032 103.339C417.871 115.829 403.006 148.614 403.006 148.614L404.048 139.283C404.048 139.283 394.846 148.614 394.263 160.713C393.68 172.812 391.348 213.403 391.348 213.403L387.559 230.576L423.7 258.678L429.529 245.408C429.529 245.408 451.389 250.872 453.72 247.359C456.052 243.846 440.144 186.777 440.144 186.777L440.896 105.291Z" fill="#575A89"/>
<path d="M409.127 186.473L391.64 218.867C391.64 218.867 370.654 229.796 374.152 238.772C377.65 247.749 395.429 225.112 395.429 225.112L421.66 194.279L409.127 186.473Z" fill="#FFB8B8"/>
<path opacity="0.1" d="M426.323 108.803C426.323 108.803 413.499 136.124 412.916 156.81C412.333 177.496 412.479 175.349 412.479 175.349L406.067 187.448L421.223 198.767L428.946 188.034C428.946 188.034 446.142 181.399 444.102 162.274C442.062 143.15 440.896 107.633 437.982 107.633C435.067 107.633 426.323 108.803 426.323 108.803Z" fill="black"/>
<path d="M426.906 104.9C426.906 104.9 414.082 132.221 413.499 152.907C412.916 173.593 414.374 173.983 414.374 173.983L406.504 188.034L421.077 198.572L429.529 184.131C429.529 184.131 446.726 177.496 444.685 158.371C442.645 139.247 441.479 103.729 438.565 103.729C435.65 103.729 426.906 104.9 426.906 104.9Z" fill="#575A89"/>
<path d="M394.834 66.7026C394.834 66.7026 389.898 34.7691 415.752 42.7591C415.752 42.7591 433.532 36.4815 441.171 66.0825L448.968 97.1332L445.928 95.305L444.795 99.4268L440.157 101.515L437.826 96.3434L437.22 102.975L398.782 112.113C398.782 112.113 415.345 96.5976 414.214 71.9463L411.177 76.9608L394.834 66.7026Z" fill="#2F2E41"/>
</svg>
